<?xml version="1.0" encoding="UTF-8"?>
<svg width="708pt" height="708pt" version="1.0" viewBox="0 0 708 708" xmlns="http://www.w3.org/2000/svg">
    <g transform="translate(0 708) scale(.1 -.1)">
        <path d="m2407 6822c-3-4-4-157-3-340 0-184-2-336-6-338-5-3-4-24 2-44 1-3 1-32 1-65-1-33-1-69-1-80 1-11 1-26 1-32-1-65-1-104 2-136 1-21-1-41-5-43-3-2-3-18 2-34s5-32 2-34c-7-4-7-35-1-97 3-24 21-35 214-120 115-51 239-106 275-123 36-16 67-30 70-31 11-3 63-26 113-49 60-28 320-143 357-159 14-6 28-10 33-9 4 1 7-2 7-8 0-5 5-10 10-10 9 0 660-286 852-374 31-14 59-26 61-26 3 0 38-15 79-34 40-19 152-69 248-111 174-76 205-90 310-138 176-80 491-217 500-217 5 0 10-4 10-9s11-12 24-15c14-3 55-20 93-37 37-17 84-37 103-45s48-22 64-31c30-17 85-20 95-6 3 4 56 32 116 61 61 29 117 57 125 62 77 42 501 251 506 250 4-1 10 2 13 7s94 53 201 107l195 97-2 631c-1 347-4 632-6 634s-131-61-288-140c-699-353-886-446-897-446-10 0-232 96-432 187-30 14-68 31-85 38-16 7-52 23-80 35-27 12-90 40-140 62-87 38-155 69-240 108-22 10-114 50-205 90s-198 87-238 106c-41 19-75 34-78 34-2 0-36 15-76 34-40 18-152 68-248 111s-193 86-215 96-162 72-312 138c-149 66-293 130-320 142-26 11-57 25-68 30-11 4-55 24-98 44-43 19-147 65-230 101-84 37-156 70-162 74-5 4-21 11-35 15-23 7-150 64-192 86-9 5-19 5-21 1z"/>
        <path d="m1202 4432c-1-285-3-541-4-570-2-28-1-52 2-52s5-31 5-70 4-71 10-72 30-11 55-23c25-13 135-62 245-110s207-91 215-96 22-12 30-15c15-6 208-91 285-125 22-10 123-55 225-100s203-89 225-99 81-36 130-58c50-22 117-52 150-67s92-41 130-57c77-34 145-64 233-104 31-14 71-32 87-39 41-18 85-37 188-84 48-22 87-37 87-34s7-1 16-8 21-14 28-15c6-1 107-46 224-98 117-53 228-102 245-110 18-8 66-29 107-48s182-81 312-138c131-58 238-107 238-110 0-7-365-190-378-190-6 0-12-3-14-7-3-8-96-57-108-58-3-1-25-12-50-25-125-66-636-320-644-320-5 0-29 9-53 20-63 29-88 40-450 201-24 11-64 28-89 40-26 11-148 65-273 121-124 55-251 111-281 125s-68 31-85 38c-16 7-52 23-80 35-27 12-90 40-140 62-49 22-110 50-135 61s-47 21-50 22-21 8-40 17c-19 8-96 43-170 76s-160 71-190 85c-30 13-91 40-135 60-76 33-112 49-222 98-27 12-82 36-123 54s-100 44-130 58c-30 13-75 34-100 45s-101 45-170 75c-69 31-221 98-337 151-117 52-215 91-216 88-2-4-5-291-6-637l-1-631 122-54c68-30 155-68 193-86 39-17 164-73 280-124s235-104 265-117c30-14 74-34 97-44 24-11 64-29 90-41 27-11 53-22 58-24 10-3 317-140 568-253 38-17 70-31 72-31 3 0 89-39 200-90 22-10 67-30 100-43 33-14 95-41 138-61 42-20 79-36 81-36s47-20 100-45 99-45 101-45 34-14 72-31c107-48 125-56 173-77 25-11 70-31 100-45 30-13 114-50 185-82 72-31 153-67 180-80 118-54 289-127 304-130 9-1 21 1 26 5 6 4 80 42 165 85s218 109 295 148 269 135 427 214l286 143 1 38c1 20 1 48 1 62-2 29-2 64-1 102 2 70 3 84 2 98-1 8-1 26 0 40v40c-1 8-1 26 0 40 2 35 1 56-1 123-2 32 0 60 3 63s1 19-3 35c-6 19-5 29 2 29s7 4-1 13c-6 8-8 17-4 20 6 7 6 36 2 160-1 32 1 60 4 63s1 19-3 35c-6 19-5 29 2 29s6 5-1 14c-7 8-8 16-4 19s6 42 3 86c-3 45-2 90 1 99 4 9 2 25-2 34-11 21 18 54 56 64 14 3 25 10 25 15s5 9 11 9c10 0 379 180 389 190 3 3 46 24 95 48 50 24 97 47 105 52 37 22 296 148 304 148 5 0 12 4 15 9s50 30 103 56l97 46 1 168c1 92 1 175 0 183 0 8 0 26 1 40 0 14 1 30 1 35 0 38-1 224-2 240 0 11 0 31 1 45 1 33 1 20-1 232-1 103 1 192 4 197 4 5 2 12-3 15s-6 21-2 38c8 40 3 78-11 78-5 0-54-22-107-50-54-27-103-50-109-50-7 0-12-3-12-7 0-5-21-17-48-27-26-11-51-24-57-28-16-12-849-428-858-428s-31 9-154 67c-40 18-74 33-77 33-2 0-38 16-79 35s-77 35-79 35c-3 0-41 17-84 37s-81 38-84 38c-3 1-21 8-40 17-199 88-1226 545-1260 560-25 11-64 28-87 39-24 10-62 27-85 38-24 10-65 29-93 41-66 30-224 99-255 113-14 5-28 10-32 9-5-1-8 2-8 6s-17 14-37 21c-37 14-59 23-216 95-44 20-81 36-83 36s-36 15-76 34c-40 18-107 48-148 66-41 17-97 42-125 55-100 46-161 73-225 99-36 16-73 32-83 37-10 6-28 14-41 19l-22 8-2-516z"/>
    </g>
</svg>
